<svg width="124" height="122" viewBox="0 0 124 122" fill="none" xmlns="http://www.w3.org/2000/svg">
<g clip-path="url(#clip0_627_481)">
<mask id="mask0_627_481" style="mask-type:luminance" maskUnits="userSpaceOnUse" x="0" y="0" width="124" height="122">
<path d="M124 0H0V121.52H124V0Z" fill="white"/>
</mask>
<g mask="url(#mask0_627_481)">
<path d="M24.9879 111.72C25.0816 111.079 24.4071 110.45 23.4814 110.316C22.5557 110.182 21.7293 110.593 21.6356 111.234C21.5419 111.876 22.2164 112.504 23.1421 112.639C24.0678 112.773 24.8942 112.362 24.9879 111.72Z" fill="white"/>
<path d="M36.0094 110.65C36.1031 110.009 35.4286 109.38 34.5029 109.246C33.5772 109.112 32.7508 109.523 32.6571 110.164C32.5634 110.806 33.2379 111.434 34.1636 111.569C35.0893 111.703 35.9157 111.292 36.0094 110.65Z" fill="#05264E"/>
<path d="M21.9694 102.834C22.0631 102.192 21.3886 101.564 20.4629 101.43C19.5372 101.295 18.7108 101.707 18.6171 102.348C18.5234 102.989 19.1979 103.618 20.1236 103.752C21.0493 103.886 21.8757 103.475 21.9694 102.834Z" fill="#FF6584"/>
<path d="M17.1808 99.1948C17.1853 98.606 16.8555 98.1262 16.4442 98.1231C16.033 98.12 15.696 98.5948 15.6915 99.1836C15.687 99.7724 16.0168 100.252 16.4281 100.255C16.8393 100.258 17.1763 99.7836 17.1808 99.1948Z" fill="#E6E6E6"/>
<path d="M15.5558 92.4135C15.5603 91.8247 15.2305 91.3449 14.8193 91.3418C14.408 91.3387 14.071 91.8135 14.0665 92.4022C14.062 92.991 14.3918 93.4708 14.8031 93.4739C15.2143 93.477 15.5513 93.0022 15.5558 92.4135Z" fill="#05264E"/>
<path d="M28.1857 104.345C28.1901 103.756 27.8604 103.276 27.4491 103.273C27.0378 103.27 26.7008 103.745 26.6963 104.334C26.6919 104.923 27.0216 105.402 27.4329 105.406C27.8442 105.409 28.1812 104.934 28.1857 104.345Z" fill="#E6E6E6"/>
<path d="M22.8595 106.995C22.864 106.407 22.5342 105.927 22.123 105.924C21.7117 105.921 21.3747 106.395 21.3702 106.984C21.3657 107.573 21.6955 108.053 22.1068 108.056C22.518 108.059 22.8551 107.584 22.8595 106.995Z" fill="#FF6584"/>
<path d="M30.2735 111.889C30.278 111.301 29.9482 110.821 29.5369 110.818C29.1256 110.815 28.7886 111.289 28.7842 111.878C28.7797 112.467 29.1095 112.947 29.5207 112.95C29.932 112.953 30.269 112.478 30.2735 111.889Z" fill="#05264E"/>
<path d="M123.706 37.235C123.719 45.8997 120.505 54.2612 114.686 60.7027V60.7075C113.863 61.6185 112.994 62.4871 112.083 63.3097C111.15 64.1512 110.172 64.9417 109.153 65.6776C108.442 66.1942 107.712 66.6821 106.963 67.1413C106.074 67.6914 105.16 68.2 104.22 68.6672C103.524 69.0164 102.813 69.3417 102.088 69.6431C97.7589 71.455 93.1097 72.3869 88.4138 72.384C85.7616 72.3869 83.1176 72.0916 80.532 71.5038C79.3362 71.233 78.1561 70.8977 76.9969 70.4993C76.5502 70.351 76.1036 70.1884 75.6617 70.0162C72.9823 68.9847 70.4414 67.627 68.0969 65.9741C63.1412 62.4992 59.1676 57.8119 56.5588 52.3636C53.9501 46.9153 52.7941 40.8898 53.2022 34.8675C53.6103 28.8451 55.5689 23.029 58.8891 17.9792C62.2093 12.9295 66.7793 8.81642 72.1589 6.03625C77.5385 3.25608 83.5463 1.9025 89.6036 2.1059C95.6609 2.3093 101.563 4.06283 106.742 7.19756C111.922 10.3323 116.203 14.7426 119.174 20.0036C122.145 25.2646 123.706 31.1989 123.706 37.235Z" fill="#F2F2F2"/>
<path d="M76.8346 119.849C69.9483 110.727 65.9681 100.526 65.8377 88.8964C65.6158 88.2696 65.6526 87.5808 65.9401 86.9811C66.2275 86.3813 66.7421 85.9196 67.3709 85.6972L90.843 77.426C91.4724 77.205 92.164 77.2417 92.7662 77.528C93.3684 77.8142 93.832 78.3267 94.0552 78.9529L105.052 109.906C105.274 110.533 105.237 111.221 104.95 111.821C104.662 112.421 104.148 112.883 103.519 113.105L80.0468 121.376C79.4175 121.597 78.7259 121.561 78.1237 121.274C77.5215 120.988 77.0579 120.476 76.8346 119.849Z" fill="#E6E6E6"/>
<path d="M75.3134 109.866C71.1717 105.695 69.3988 98.2573 68.2436 89.9668C68.0358 89.3798 68.0703 88.7347 68.3395 88.1731C68.6086 87.6114 69.0906 87.179 69.6795 86.9707L89.8518 79.8623C90.4412 79.6553 91.0889 79.6896 91.6529 79.9577C92.2169 80.2258 92.6511 80.7057 92.8602 81.2922L102.646 108.836C102.854 109.423 102.819 110.068 102.55 110.63C102.281 111.191 101.799 111.624 101.21 111.832L88.7137 116.235C86.0884 117.157 83.2032 117.004 80.6911 115.81C78.1789 114.616 76.2449 112.478 75.3134 109.866Z" fill="white"/>
<path d="M93.1304 96.1293L77.4167 101.716C77.2929 101.76 77.1616 101.779 77.0303 101.773C76.899 101.766 76.7703 101.734 76.6515 101.678C76.5327 101.622 76.4261 101.543 76.3379 101.446C76.2497 101.349 76.1816 101.236 76.1374 101.112C76.0932 100.989 76.0738 100.858 76.0803 100.727C76.0869 100.597 76.1192 100.468 76.1755 100.35C76.2318 100.232 76.311 100.126 76.4085 100.038C76.5059 99.9494 76.6198 99.8816 76.7436 99.8375L92.4574 94.2514C92.7074 94.1625 92.9827 94.1761 93.2226 94.2894C93.4625 94.4026 93.6475 94.6062 93.7367 94.8552C93.826 95.1042 93.8123 95.3784 93.6986 95.6173C93.5849 95.8563 93.3805 96.0404 93.1304 96.1293Z" fill="#003F5B"/>
<path d="M79.0281 95.3386L75.571 96.5676C75.4472 96.6118 75.3158 96.6312 75.1844 96.6248C75.053 96.6183 74.9242 96.5862 74.8053 96.5301C74.6864 96.4741 74.5797 96.3953 74.4914 96.2981C74.4031 96.201 74.3349 96.0875 74.2907 95.9641C74.2465 95.8407 74.2271 95.7099 74.2337 95.579C74.2403 95.4482 74.2727 95.3199 74.3291 95.2015C74.3855 95.0832 74.4648 94.977 74.5624 94.8892C74.66 94.8014 74.774 94.7335 74.898 94.6896L78.355 93.4607C78.4788 93.4165 78.6102 93.3971 78.7416 93.4035C78.873 93.4099 79.0018 93.4421 79.1207 93.4981C79.2396 93.5542 79.3463 93.633 79.4346 93.7301C79.5229 93.8272 79.5911 93.9408 79.6353 94.0641C79.6795 94.1875 79.6989 94.3184 79.6923 94.4493C79.6857 94.5801 79.6533 94.7084 79.5969 94.8267C79.5405 94.9451 79.4612 95.0512 79.3636 95.1391C79.266 95.2269 79.152 95.2947 79.0281 95.3386Z" fill="#003F5B"/>
<path d="M96.0895 104.387L80.3758 109.973C80.1258 110.062 79.8507 110.048 79.611 109.934C79.3713 109.821 79.1865 109.618 79.0973 109.369C79.0081 109.12 79.0218 108.846 79.1353 108.607C79.2488 108.368 79.4529 108.184 79.7027 108.095L95.4163 102.509C95.6663 102.42 95.9414 102.434 96.1811 102.547C96.4208 102.661 96.6056 102.864 96.6948 103.113C96.784 103.362 96.7703 103.636 96.6568 103.875C96.5433 104.114 96.3393 104.298 96.0895 104.387Z" fill="#003F5B"/>
<path d="M94.6099 100.259L78.8962 105.845C78.6461 105.934 78.3709 105.92 78.1309 105.807C77.891 105.694 77.7061 105.49 77.6168 105.241C77.5276 104.992 77.5413 104.718 77.655 104.479C77.7687 104.24 77.973 104.056 78.2231 103.967L93.9368 98.3807C94.0607 98.3365 94.192 98.3171 94.3234 98.3235C94.4548 98.33 94.5837 98.3621 94.7026 98.4182C94.8215 98.4742 94.9281 98.553 95.0164 98.6502C95.1047 98.7473 95.1729 98.8608 95.2171 98.9842C95.2614 99.1076 95.2807 99.2384 95.2742 99.3693C95.2676 99.5001 95.2351 99.6284 95.1787 99.7468C95.1223 99.8651 95.0431 99.9712 94.9455 100.059C94.8479 100.147 94.7338 100.215 94.6099 100.259Z" fill="#003F5B"/>
<path d="M80.341 21.3319C80.8527 25.4437 83.7135 28.8339 87.8737 28.8339C89.8715 28.8339 91.7874 28.0436 93.2001 26.6367C94.6127 25.2298 95.4063 23.3216 95.4063 21.3319C95.4063 17.1887 92.016 14.213 87.8737 13.83C83.4784 13.4235 79.684 16.0529 80.341 21.3319Z" fill="#2F2E41"/>
<path d="M94.4313 71.8723C89.8188 72.662 85.095 72.5368 80.5312 71.504C82.6974 70.3129 89.268 71.0448 94.4313 71.8723Z" fill="#2F2E41"/>
<path d="M65.1128 85.0681L68.7312 76.3594L71.582 77.9367L69.8604 86.7957C70.0328 87.357 70.0446 87.955 69.8945 88.5226C69.7444 89.0901 69.4382 89.6047 69.0105 90.0085C68.5828 90.4123 68.0505 90.6893 67.4734 90.8083C66.8964 90.9273 66.2974 90.8837 65.7438 90.6822C65.1903 90.4808 64.7041 90.1296 64.34 89.6681C63.9759 89.2066 63.7483 88.6531 63.6827 88.0698C63.6172 87.4865 63.7163 86.8965 63.9689 86.3663C64.2216 85.836 64.6177 85.3864 65.1128 85.0681Z" fill="#FFB6B6"/>
<path d="M102.544 61.5016V61.5064C102.414 64.5391 102.236 67.4235 102.088 69.6431C97.7581 71.455 93.1089 72.3869 88.413 72.384C85.7608 72.3869 83.1168 72.0917 80.5312 71.5039C79.3354 71.2331 78.1553 70.8977 76.9961 70.4993C77.1575 70.3956 77.3319 70.3136 77.5149 70.2554C79.244 69.6718 77.5341 69.1408 77.5485 68.5859C77.6013 66.5577 78.1633 64.1229 78.8885 61.7886L75.6608 70.0162L73.9798 74.2926C73.9798 74.2926 74.0374 77.9855 72.9712 76.8566C71.9001 75.7277 71.9769 79.3822 71.9769 79.3822C71.644 79.6185 71.3575 79.9136 71.1316 80.2528C71.0366 80.4055 71.0007 80.5875 71.0307 80.7647V80.7695C71.079 80.9086 71.174 81.0268 71.2997 81.1043C72.025 81.5922 70.9827 82.8837 70.5216 83.3956C70.3967 83.5343 70.3151 83.6156 70.3151 83.6156L65.8818 83.2999V83.2138C65.9011 82.6924 66.0211 79.9467 66.708 79.2913C67.4621 78.5691 67.0922 77.4258 67.0922 77.4258C67.0922 77.4258 69.0615 75.6894 67.7406 74.2783C67.2123 73.709 67.4476 70.3367 68.096 65.9741C69.513 56.3498 72.9087 41.9037 74.3784 42.1094C74.6813 40.6441 75.3847 39.2907 76.4111 38.1984C77.4375 37.1061 78.7469 36.3175 80.1949 35.9195L84.9836 34.6089L85.8385 31.2461H92.582L93.754 33.456L98.6675 35.666L98.7299 35.6947L98.8836 35.7617L98.9412 35.9435C98.9412 35.9435 98.9364 35.9482 98.9412 35.9482L101.674 44.4963C102.904 45.9027 102.856 54.1207 102.544 61.5016Z" fill="#003F5B"/>
<path d="M114.027 78.7264L109.461 70.4713L112.478 69.2402L118.348 76.1143C118.895 76.3309 119.372 76.6954 119.723 77.1668C120.074 77.6382 120.286 78.1978 120.335 78.7826C120.385 79.3675 120.269 79.9545 120.002 80.4776C119.735 81.0007 119.326 81.4392 118.822 81.7437C118.319 82.0483 117.74 82.2068 117.15 82.2016C116.561 82.1963 115.985 82.0275 115.486 81.714C114.988 81.4005 114.588 80.9548 114.33 80.427C114.072 79.8992 113.967 79.3103 114.027 78.7264Z" fill="#FFB6B6"/>
<path d="M98.6689 35.5996C99.4812 37.0531 106.909 40.7914 105.622 44.5443C105.622 44.5443 112.601 66.2887 113.508 66.1467C114.416 66.0048 115.301 68.2509 115.301 68.2509C115.301 68.2509 115.109 69.7168 115.675 69.1076C116.241 68.4984 116.105 70.0953 116.105 70.0953C116.105 70.0953 115.834 71.5047 116.553 71.1215C117.271 70.7383 116.327 73.4355 116.327 73.4355L112.008 75.4609L111.187 74.2443C111.187 74.2443 109.433 73.9117 110.258 73.6482C111.083 73.3847 109.482 72.4979 109.482 72.4979C109.482 72.4979 107.807 71.364 108.041 69.4862C108.274 67.6084 103.693 63.917 103.693 63.917C100.545 57.7252 98.8222 51.3682 98.8282 44.8108L98.6689 35.5996Z" fill="#003F5B"/>
<path d="M88.7061 29.2795C92.3952 29.2795 95.3858 26.3011 95.3858 22.6271C95.3858 18.9531 92.3952 15.9746 88.7061 15.9746C85.017 15.9746 82.0264 18.9531 82.0264 22.6271C82.0264 26.3011 85.017 29.2795 88.7061 29.2795Z" fill="#FFB6B6"/>
<path d="M81.79 23.3512C82.0015 24.7967 83.2386 26.8136 82.9488 26.8136C82.6591 26.8136 80.5992 20.8544 82.6591 20.4658C84.1533 20.1839 84.4873 20.4312 85.8837 19.8281L85.6867 20.0128C86.6109 20.6822 87.8972 20.2696 88.9518 19.8339C90.0093 19.4011 91.2927 18.9885 92.2198 19.655C92.8022 20.0734 93.0484 20.8005 93.4106 21.418C93.7727 22.0383 94.442 22.6241 95.1315 22.4336C95.4002 22.3302 95.6291 22.1447 95.7853 21.9036C95.9414 21.6625 96.0168 21.3784 96.0007 21.0919C95.9978 20.5206 95.2508 19.9771 95.5024 19.4645C96.2479 17.9456 95.5774 16.9102 93.9524 16.1954C93.3613 16.106 92.7703 16.0146 92.1793 15.9213C92.489 15.4941 92.8644 15.1182 93.2918 14.8076C93.1113 14.3465 92.799 13.9483 92.3937 13.6621C91.8929 13.4302 91.3348 13.35 90.7886 13.4312C89.566 13.4947 88.3444 13.5582 87.1237 13.6217C86.2146 13.6055 85.3122 13.7805 84.4757 14.1353C83.4674 14.6517 82.8069 15.6587 82.3259 16.6831C81.2482 18.9856 81.4191 20.838 81.79 23.3512Z" fill="#2F2E41"/>
<path d="M26.3905 63.3196C24.9742 61.9093 23.2896 60.7946 21.4353 60.0408C19.581 59.2871 17.5944 58.9094 15.5917 58.93L15.4317 58.9304C12.7004 58.9315 10.0179 58.21 7.65842 56.8398L7.4129 56.6973L7.61065 56.4943C8.68123 55.3912 9.57518 54.1307 10.2612 52.7571C9.77396 53.2094 9.19288 53.5496 8.55904 53.7536C7.92521 53.9575 7.2541 54.0202 6.59325 53.9371C5.89555 53.8543 5.22574 53.6152 4.63407 53.2378C4.04239 52.8603 3.54421 52.3544 3.17689 51.7578C1.72759 49.4159 0 46.0929 0 43.5614C0.00225548 41.4216 0.452114 39.3057 1.32091 37.3487C2.1897 35.3917 3.45837 33.6364 5.04604 32.1947C6.05118 31.2921 6.85402 30.1886 7.40223 28.9563C7.95045 27.7239 8.23171 26.3903 8.2277 25.0425L8.2269 24.8506C8.22663 23.0761 8.44437 21.3081 8.87528 19.5862L8.91902 19.4124L9.09866 19.4186C10.257 19.4579 11.416 19.3612 12.5517 19.1305C11.4864 19.0004 10.4443 18.7243 9.45491 18.3102L9.26167 18.2323L9.32724 18.0351C13.8481 15.2474 24.0528 16.691 29.976 3.19445C34.7788 -7.74944 51.725 12.9094 51.725 24.8506C51.725 26.0691 50.5142 27.6793 51.4206 28.4846C61.2188 37.1905 54.4582 42.7808 52.3267 48.406C51.8209 49.7407 52.9175 51.2059 52.9175 52.6498C52.9175 52.8948 52.9112 53.1477 52.8988 53.4015L52.88 53.7917L52.5533 53.5752C51.907 53.1535 51.3079 52.6641 50.7663 52.1154C51.3282 53.4032 51.593 54.8001 51.5412 56.2033C51.4895 57.6065 51.1224 58.9803 50.4672 60.2236C49.4403 62.1538 48.4469 63.5356 47.5146 64.3304C44.5278 66.8759 40.6776 68.189 36.751 68.0011C32.8245 67.8132 29.1185 66.1386 26.3905 63.3196Z" fill="#E6E6E6"/>
<path d="M42.7946 92.357C42.8614 92.3569 42.9259 92.3329 42.9763 92.2892C43.0267 92.2456 43.0596 92.1854 43.069 92.1196C43.7947 85.6744 43.8381 79.1711 43.1985 72.7169C42.2406 62.5352 39.1644 47.87 29.9495 35.8257C29.9274 35.7968 29.8998 35.7726 29.8683 35.7543C29.8368 35.7361 29.802 35.7242 29.7659 35.7193C29.7298 35.7145 29.693 35.7167 29.6578 35.726C29.6226 35.7353 29.5895 35.7514 29.5605 35.7734C29.5315 35.7954 29.5072 35.8229 29.4889 35.8542C29.4705 35.8856 29.4586 35.9203 29.4537 35.9562C29.4488 35.9922 29.4511 36.0288 29.4604 36.0639C29.4697 36.099 29.4859 36.1319 29.508 36.1608C38.6434 48.1011 41.6947 62.6587 42.6459 72.7685C43.282 79.1795 43.2397 85.6394 42.5195 92.0416C42.5139 92.0809 42.5169 92.1208 42.5282 92.1588C42.5395 92.1968 42.5588 92.2319 42.5849 92.2618C42.6109 92.2917 42.6432 92.3157 42.6794 92.3321C42.7155 92.3485 42.7549 92.357 42.7946 92.357Z" fill="#05264E"/>
<path d="M35.2746 52.8151C35.3333 52.8151 35.3904 52.7967 35.4379 52.7624C35.4853 52.7281 35.5206 52.6797 35.5388 52.6242C35.5569 52.5687 35.5569 52.5089 35.5388 52.4534C35.5207 52.3978 35.4855 52.3494 35.438 52.3151C32.8123 50.545 29.9758 49.107 26.9937 48.034C22.3349 46.3353 15.2504 44.7953 7.95701 47.1071C7.92228 47.1181 7.89007 47.1358 7.86222 47.1592C7.83437 47.1826 7.81142 47.2113 7.79468 47.2435C7.77794 47.2757 7.76774 47.3109 7.76466 47.3471C7.76158 47.3833 7.76569 47.4197 7.77674 47.4543C7.78779 47.4888 7.80556 47.5209 7.82906 47.5487C7.85256 47.5764 7.88132 47.5993 7.91369 47.6159C7.94606 47.6326 7.98141 47.6428 8.01772 47.6458C8.05403 47.6489 8.09059 47.6448 8.12531 47.6338C15.2693 45.3696 22.2253 46.8841 26.8029 48.5532C29.737 49.6077 32.528 51.0216 35.1117 52.7623C35.159 52.7966 35.2161 52.8151 35.2746 52.8151Z" fill="#05264E"/>
<path d="M47.9766 21.3082C47.9809 21.25 47.9666 21.1919 47.9356 21.1423C47.9047 21.0927 47.8588 21.0541 47.8045 21.0321C47.7502 21.0101 47.6903 21.0058 47.6334 21.0197C47.5765 21.0337 47.5255 21.0653 47.4877 21.1099C45.5259 23.5907 43.8814 26.3048 42.5921 29.1897C40.5554 33.6952 38.503 40.6216 40.2929 48.0328C40.3014 48.0682 40.3167 48.1016 40.3381 48.131C40.3595 48.1605 40.3866 48.1854 40.4177 48.2045C40.4488 48.2235 40.4834 48.2362 40.5194 48.2419C40.5555 48.2476 40.5923 48.2462 40.6278 48.2377C40.6633 48.2292 40.6968 48.2138 40.7263 48.1924C40.7558 48.171 40.7808 48.144 40.7998 48.1129C40.8188 48.0819 40.8315 48.0474 40.8371 48.0115C40.8427 47.9756 40.8412 47.9389 40.8325 47.9036C39.0794 40.6442 41.0971 33.8435 43.0983 29.4166C44.3657 26.578 45.9827 23.9074 47.912 21.4663C47.9498 21.4217 47.9724 21.3664 47.9766 21.3082Z" fill="#05264E"/>
</g>
</g>
<defs>
<clipPath id="clip0_627_481">
<rect width="124" height="122" fill="white"/>
</clipPath>
</defs>
</svg>
