<svg width="228" height="149" viewBox="0 0 228 149" fill="none" xmlns="http://www.w3.org/2000/svg">
<g clip-path="url(#clip0_627_513)">
<mask id="mask0_627_513" style="mask-type:luminance" maskUnits="userSpaceOnUse" x="0" y="61" width="133" height="88">
<path d="M133 61H0V149H133V61Z" fill="white"/>
</mask>
<g mask="url(#mask0_627_513)">
<path d="M51.4212 68.9498H35.2852C34.7317 68.9498 34.2812 68.5019 34.2812 67.9514C34.2812 67.401 34.7317 66.9531 35.2852 66.9531H51.4212C51.9748 66.9531 52.4253 67.401 52.4253 67.9514C52.4253 68.5019 51.9748 68.9498 51.4212 68.9498Z" fill="#E6E7E8"/>
<path d="M64.014 72.3287H35.2852C34.7317 72.3287 34.2812 71.8808 34.2812 71.3303C34.2812 70.7799 34.7317 70.332 35.2852 70.332H64.014C64.5676 70.332 65.0179 70.7799 65.0179 71.3303C65.0179 71.8808 64.5676 72.3287 64.014 72.3287Z" fill="#E6E7E8"/>
<path d="M64.014 75.6782H35.2852C34.7317 75.6782 34.2812 75.2304 34.2812 74.6799C34.2812 74.1295 34.7317 73.6816 35.2852 73.6816H64.014C64.5676 73.6816 65.0179 74.1295 65.0179 74.6799C65.0179 75.2304 64.5676 75.6782 64.014 75.6782Z" fill="#E6E7E8"/>
<path d="M67.0566 93.0549V92.5766C61.5038 92.5766 56.6549 88.0661 55.3657 81.7833L57.4578 82.3185C56.4459 81.3652 55.4236 79.7692 54.7894 78.4648C54.4149 79.8651 53.7153 81.6248 52.9033 82.7516L54.8829 81.8191C56.1992 88.3556 61.2566 93.0549 67.0566 93.0549Z" fill="#3F3D56"/>
<path d="M64.9563 74.7478C64.9563 75.2753 64.5247 75.7045 63.9942 75.7045H51.4865C50.956 75.7045 50.5244 75.2753 50.5244 74.7478C50.5244 74.2202 50.956 73.791 51.4865 73.791H63.9942C64.5247 73.791 64.9563 74.2202 64.9563 74.7478Z" fill="#003F5B"/>
<path d="M8.63641 128.041C8.446 127.382 8.11995 126.82 7.73175 126.418L6.32135 120.025L3.24707 120.774L5.00878 127.179C4.89293 127.721 4.91611 128.368 5.10652 129.027C5.5415 130.533 6.68431 131.533 7.65906 131.261C8.63382 130.989 9.07139 129.547 8.63641 128.041Z" fill="#FFB6B6"/>
<path d="M8.21072 86.1046C8.21072 86.1046 4.89019 85.9906 2.96593 88.1433C0.761322 90.8213 -0.745628 101.314 0.385645 102.021L3.45067 123.664L7.82133 123.066L6.69961 97.0985L8.21072 86.1046Z" fill="#003F5B"/>
<path d="M30.6271 122.586L29.8316 149H18.4063L17.9445 138.818L15.9144 149H3.66895L5.19633 131.497L6.77422 127.816L7.84218 125.321L30.6271 122.586Z" fill="#E3B562"/>
<path d="M21.5526 81.7889L13.615 81.3105L10.9692 84.6591C8.68407 85.1456 6.62009 85.7737 5.19642 86.8117C5.53703 96.8396 4.7888 109.879 7.84228 112.404L5.13086 131.434C5.13086 131.434 6.2243 130.503 8.05084 130.832C8.68186 130.945 9.4436 132.359 10.219 132.445C16.1769 133.103 25.8385 132.426 30.6272 122.585L28.7685 108.338L29.2496 87.5294C27.7457 86.3473 25.876 85.579 23.7174 85.1375L21.5526 81.7889Z" fill="#003F5B"/>
<path d="M36.8332 75.9681C36.9194 76.7973 36.81 77.5771 36.5582 78.2024L37.8804 86.0504L34.1065 86.5668L33.1716 78.5502C32.7965 77.9893 32.5292 77.2481 32.4431 76.4189C32.2463 74.5245 33.0696 72.8879 34.2819 72.7634C35.4942 72.6389 36.6365 74.0737 36.8332 75.9681Z" fill="#FFB6B6"/>
<path d="M24.2869 88.1296C23.8918 88.7093 24.0019 89.361 23.9076 90.1439C23.507 93.4677 29.9123 103.29 34.3443 104.421C34.9259 104.569 35.2572 105.193 35.8442 105.318C37.5832 105.69 39.2022 104.317 39.1084 102.551L37.9045 79.8984L32.8467 81.6138L33.1705 93.3745C33.1382 90.9381 30.8884 88.4573 29.1842 87.4254C29.1842 87.4254 25.7323 86.009 24.2869 88.1296Z" fill="#003F5B"/>
<path d="M18.4077 80.6921C22.2691 80.6921 25.3994 77.5793 25.3994 73.7396C25.3994 69.8998 22.2691 66.7871 18.4077 66.7871C14.5463 66.7871 11.416 69.8998 11.416 73.7396C11.416 77.5793 14.5463 80.6921 18.4077 80.6921Z" fill="#FFB6B6"/>
<path d="M24.9203 68.635C24.8602 68.6493 25.8407 67.699 25.8824 67.6782C26.8446 67.1999 25.856 71.8759 25.1608 71.7443C23.4506 71.4214 22.7122 70.7804 22.0484 72.3805C21.8631 72.8254 21.7477 73.3277 21.3869 73.6458C20.8914 74.0787 20.0688 74.0429 19.6647 74.5595C19.34 74.9757 19.4338 75.588 19.6743 76.0568C19.9148 76.528 20.2805 76.9274 20.4993 77.4082C20.7447 77.9487 19.6984 79.6684 19.2991 80.6347V80.6371L19.2967 80.6428C19.1906 80.8962 18.9385 80.1661 18.6723 80.0932C18.3538 80.006 17.8845 80.7539 17.3772 80.618C17.3748 80.618 17.3724 80.6156 17.37 80.6156C16.8865 80.4816 16.3477 80.3381 15.8138 80.1946H15.8114C14.308 79.788 13.928 80.3716 13.8558 80.3549L12.9226 79.3837C12.6023 79.1518 12.6385 78.4033 12.4126 78.2022C12.2279 78.0378 11.7675 78.4178 11.6318 78.2597C10.9664 77.4848 10.8133 76.7095 10.421 75.179C10.0626 73.7798 9.31938 69.5917 10.8468 69.4027C12.2876 69.2233 11.234 67.2286 12.6844 67.3027C12.5979 66.9391 12.759 66.5493 13.0212 66.2814C13.281 66.0111 13.6273 65.8437 13.9761 65.7002C15.6959 65.0018 15.4097 64.4014 17.2233 64.808C17.4037 64.5569 19.717 63.9022 20.0441 63.9859C20.0681 63.9907 19.5396 65.0114 20.8313 64.808C20.7831 65.1022 21.4873 64.4642 21.5529 65.5256C22.9305 64.7034 23.6719 66.6713 23.7176 66.9607C23.7778 67.3218 23.2294 67.1377 23.595 67.1927C23.8115 67.2262 24.1819 67.6639 24.1458 67.8815C24.3021 67.671 24.4585 67.463 24.6172 67.2525C24.6461 67.2549 24.6725 67.2597 24.7014 67.2644C25.4326 67.4032 24.5943 69.7801 24.6245 69.0392C24.6798 67.6782 25.6491 68.4747 24.9203 68.635Z" fill="#E3B562"/>
<path d="M114.101 67.2092C113.843 69.3205 113.561 71.4289 113.254 73.5339C113.13 74.3889 112.999 75.2547 112.653 76.0472C112.417 76.5881 112.086 77.082 111.757 77.5726C111.368 78.1524 110.973 78.7396 110.445 79.1979C109.918 79.6562 109.232 79.978 108.533 79.9242C110.387 78.6834 111.633 76.5848 111.83 74.3715C111.922 73.3311 111.795 72.2853 111.771 71.2412C111.747 70.197 111.834 69.1165 112.319 68.1898C112.803 67.2631 113.76 66.5213 114.81 66.5476L114.101 67.2092Z" fill="#E3B562"/>
<path d="M95.3154 112.24C93.8072 113.457 91.9534 113.669 91.175 112.715C90.3965 111.76 90.9881 110 92.4964 108.784C93.1566 108.251 93.883 107.911 94.5565 107.777L101.012 102.703L103.342 105.766L96.7311 110.444C96.4602 111.071 95.9756 111.708 95.3154 112.24Z" fill="#A0616A"/>
<path d="M96.5343 105.35L106.154 96.274L107.116 95.5564C107.116 95.5564 112.638 90.2067 114.068 90.0842C114.674 90.0325 115.279 90.1826 115.79 90.5122C116.614 91.0437 117.041 91.9185 117.041 92.8003C117.041 93.5371 116.742 94.2774 116.132 94.8227L107.325 102.684L103.578 106.028L98.9186 110.189L98.4448 109.229L96.8431 105.978L96.5343 105.35Z" fill="#003F5B"/>
<path d="M117.104 99.209L107.472 102.143C109.085 102.595 109.76 112.365 108.259 112.669C108.259 112.669 124.222 113.798 123.351 112.669C122.289 111.293 123.713 102.147 124.392 102.143L117.104 99.209Z" fill="#A0616A"/>
<path d="M129.92 149L129.078 138.897C129.078 135.283 128.843 132.018 128.465 129.107C126.952 117.423 123.159 111.434 123.159 111.434H108.967C108.948 111.456 108.929 111.472 108.91 111.494L108.907 111.496C105.559 114.996 103.818 123.795 103.043 129.107C102.675 131.635 102.526 133.374 102.526 133.374L101.138 145.64L102.141 149H110.399L110.269 148.28L115.582 129.107L115.647 128.873L115.705 129.107L120.631 149H129.92Z" fill="#E3B562"/>
<path d="M109.258 93.3795L112.257 87.36L114.784 82.9867L116.827 80.916H122.419L122.94 82.9867L126.063 84.7123L127.168 93.3402L123.232 112.06C118.547 108.263 108.89 107.212 108.89 107.212L107.325 102.684L106.291 97.2296L106.166 96.5774L109.258 93.3795Z" fill="#003F5B"/>
<path d="M108.898 104.269C106.957 104.215 105.412 103.174 105.447 101.946C105.482 100.718 107.084 99.7659 109.025 99.8206C109.875 99.8446 110.649 100.058 111.248 100.393L119.47 100.727L119.23 104.561L111.15 103.824C110.533 104.124 109.748 104.293 108.898 104.269Z" fill="#A0616A"/>
<path d="M119.414 91.1838L127.17 98.841L113.66 100.216L110.52 104.608L129.351 105.229C131.05 105.83 132.86 104.663 133 102.875C133.047 102.271 129.178 86.9523 126.836 85.5301C124.091 83.8632 119.414 91.1838 119.414 91.1838Z" fill="#003F5B"/>
<path d="M124.802 73.4038C124.858 69.9258 122.068 67.0608 118.571 67.0047C115.073 66.9486 112.192 69.7227 112.135 73.2007C112.079 76.6788 114.869 79.5437 118.366 79.5998C121.864 79.6559 124.745 76.8818 124.802 73.4038Z" fill="#A0616A"/>
<path d="M132.372 92.9269C132.213 93.5249 130.977 93.8334 130.688 94.6012C129.77 95.1226 130.268 90.8628 129.897 90.5829C129.611 90.37 129.534 90.8843 129.469 90.4418C129.224 88.7819 127.619 89.1525 126.431 88.8846C126.296 88.6239 126.193 88.3705 126.126 88.1241C126.005 87.6792 125.457 87.5238 125.132 87.8514C124.985 87.7223 124.88 87.2654 124.776 86.8086C124.702 86.4761 124.627 86.1436 124.54 85.9331L123.713 84.0772L123.98 85.4596C123.439 85.2659 122.893 85.4668 122.578 84.8019C122.174 83.948 122.012 82.9482 122.306 82.0513C122.573 81.2381 123.023 79.6092 123.53 78.2602C122.955 78.674 122.265 78.9754 121.464 79.1261C121.748 78.5903 122.037 78.045 122.157 77.4494C122.275 76.8539 122.202 76.1913 121.822 75.7177C121.51 75.3279 121.048 75.4259 120.658 75.1126C120.355 74.8686 120.093 74.2444 119.91 73.9023C120.69 76.4783 121.279 79.2146 120.288 81.6734C119.602 83.3764 118.159 84.7611 116.427 85.3902C117.349 84.7348 118.248 84.0365 118.938 83.1467C119.677 82.1924 120.158 80.9869 120.011 79.791C119.78 77.9134 116.278 71.9744 115.848 70.8073C116.083 71.9482 115.992 72.838 115.371 73.3283C115.21 71.6732 113.397 71.8238 112.408 71.1613C112.408 71.1613 111.643 66.8632 113.438 66.8369C114.303 66.825 115.21 64.8015 115.997 64.4403C117.252 63.8639 118.022 64.2561 119.415 64.2992C120.805 64.3398 122.14 64.9354 122.989 66.0285C123.434 66.6001 123.598 66.1457 124.266 66.502C124.901 66.8393 125.329 66.526 126.049 66.5475C127.489 66.5858 128.887 67.3512 129.695 68.5351C130.503 69.7214 131.001 69.6114 130.681 71.4459C130.676 71.4675 130.676 71.5105 130.681 71.5751C130.857 74.4644 130.407 77.3609 129.255 80.0206C128.899 80.8386 130.64 81.6829 130.638 82.7042C130.635 83.8906 128.714 84.9717 128.892 85.4788C129.402 87.9208 132.266 87.3779 131.59 91.4655C131.535 91.7979 132.478 92.5275 132.372 92.9269Z" fill="#E3B562"/>
<path d="M114.825 85.4461C114.878 85.4294 114.931 85.4102 114.984 85.3887C114.916 85.4365 114.851 85.482 114.784 85.5298L114.825 85.4461Z" fill="#E3B562"/>
<path d="M123.747 65.2949C123.058 65.3967 122.358 64.26 122.749 62.6836C123.601 63.9799 124.037 65.4391 124.106 67.042L123.646 67.1836L123.747 65.2949Z" fill="#003F5B"/>
<path d="M127.267 63.8242C126.797 65.4809 124.409 66.5897 123.987 66.0131L123.939 67.0011L123.644 66.6235C124.5 65.3572 125.667 64.3857 127.267 63.8242Z" fill="#003F5B"/>
<path d="M74.835 108.5C74.835 107.95 75.2854 107.502 75.839 107.502H91.9751C92.5286 107.502 92.979 107.95 92.979 108.5C92.979 109.051 92.5286 109.498 91.9751 109.498H75.839C75.2854 109.498 74.835 109.051 74.835 108.5Z" fill="#E6E7E8"/>
<path d="M74.835 115.197C74.835 114.647 75.2854 114.199 75.839 114.199H91.9751C92.5286 114.199 92.979 114.647 92.979 115.197C92.979 115.748 92.5286 116.196 91.9751 116.196H75.839C75.2854 116.196 74.835 115.748 74.835 115.197Z" fill="#E6E7E8"/>
<path d="M63.2461 112.877C62.6926 112.877 62.2422 112.43 62.2422 111.879C62.2422 111.329 62.6926 110.881 63.2461 110.881H91.9749C92.5284 110.881 92.9788 111.329 92.9788 111.879C92.9788 112.43 92.5284 112.877 91.9749 112.877H63.2461Z" fill="#E6E7E8"/>
<path d="M61.1105 103.322L59.1309 102.389C59.9428 103.516 60.6424 105.276 61.017 106.676C61.6512 105.371 62.6735 103.775 63.6854 102.822L61.5932 103.357C62.8824 97.0747 67.7314 92.5643 73.2841 92.5643V92.0859C67.4841 92.0859 62.4268 96.7853 61.1105 103.322Z" fill="#3F3D56"/>
<path d="M70.2208 112.896H57.7131C57.1826 112.896 56.751 112.466 56.751 111.939C56.751 111.411 57.1826 110.982 57.7131 110.982H70.2208C70.7513 110.982 71.1829 111.411 71.1829 111.939C71.1829 112.466 70.7513 112.896 70.2208 112.896Z" fill="#003F5B"/>
<path d="M73.8739 93.3298C74.207 91.2883 72.8128 89.3647 70.7597 89.0333C68.7066 88.702 66.7721 90.0885 66.4389 92.1301C66.1057 94.1717 67.5 96.0953 69.5531 96.4266C71.6062 96.7579 73.5407 95.3714 73.8739 93.3298Z" fill="#3F3D56"/>
<path d="M49.7116 65.6197C50.9945 65.6197 52.0345 64.5856 52.0345 63.3099C52.0345 62.0342 50.9945 61 49.7116 61C48.4287 61 47.3887 62.0342 47.3887 63.3099C47.3887 64.5856 48.4287 65.6197 49.7116 65.6197Z" fill="#E6E7E8"/>
<path d="M76.8913 105.563C78.1742 105.563 79.2142 104.529 79.2142 103.253C79.2142 101.978 78.1742 100.943 76.8913 100.943C75.6084 100.943 74.5684 101.978 74.5684 103.253C74.5684 104.529 75.6084 105.563 76.8913 105.563Z" fill="#E6E7E8"/>
</g>
<path d="M199.591 4.25079C199.827 3.32194 198.932 2.29464 197.591 1.95626C196.251 1.61789 194.972 2.09657 194.736 3.02542C194.5 3.95427 195.395 4.98155 196.736 5.31993C198.076 5.6583 199.355 5.17964 199.591 4.25079Z" fill="#3F3D56"/>
<path d="M219.036 17.8836C219.272 16.9548 218.377 15.9275 217.036 15.5891C215.696 15.2507 214.417 15.7294 214.181 16.6582C213.944 17.5871 214.84 18.6144 216.18 18.9528C217.521 19.2911 218.799 18.8125 219.036 17.8836Z" fill="#FF6584"/>
<path d="M222.852 22.986C222.949 22.1209 222.538 21.365 221.934 21.2978C221.33 21.2305 220.761 21.8774 220.664 22.7425C220.567 23.6077 220.978 24.3635 221.582 24.4308C222.187 24.498 222.755 23.8512 222.852 22.986Z" fill="#E6E6E6"/>
<path d="M224.201 33.2009C224.298 32.3357 223.887 31.5798 223.282 31.5126C222.678 31.4453 222.11 32.0922 222.012 32.9573C221.915 33.8225 222.327 34.5784 222.931 34.6456C223.535 34.7129 224.104 34.066 224.201 33.2009Z" fill="#3F3D56"/>
<path d="M207.46 13.7301C207.557 12.865 207.146 12.1091 206.542 12.0419C205.937 11.9746 205.369 12.6215 205.272 13.4866C205.175 14.3518 205.586 15.1076 206.19 15.1749C206.795 15.2421 207.363 14.5953 207.46 13.7301Z" fill="#E6E6E6"/>
<path d="M215.7 10.6482C215.797 9.78299 215.386 9.02713 214.781 8.95988C214.177 8.89263 213.608 9.53946 213.511 10.4047C213.414 11.2698 213.825 12.0257 214.43 12.0929C215.034 12.1602 215.603 11.5133 215.7 10.6482Z" fill="#FF6584"/>
<path d="M205.549 2.32002C205.646 1.45487 205.235 0.699005 204.631 0.631756C204.026 0.564507 203.458 1.21134 203.361 2.07649C203.264 2.94165 203.675 3.69751 204.279 3.76476C204.883 3.832 205.452 3.18518 205.549 2.32002Z" fill="#3F3D56"/>
<path d="M184.155 115.002C179.89 115.002 175.764 113.485 172.523 110.724C171.441 109.802 170.289 108.199 169.098 105.961C168.338 104.519 167.912 102.925 167.852 101.298C167.792 99.6696 168.099 98.0494 168.751 96.5556C168.123 97.1921 167.428 97.7597 166.678 98.2488L166.299 98.4999L166.277 98.0474C166.263 97.7531 166.256 97.4597 166.256 97.1755C166.256 95.5007 167.528 93.8013 166.941 92.2532C164.469 85.7285 156.627 79.2443 167.992 69.1465C169.043 68.2124 167.639 66.3447 167.639 64.9315C167.639 51.0809 187.295 27.1189 192.865 39.8126C199.736 55.4672 211.572 53.7928 216.816 57.0262L216.892 57.2549L216.668 57.3453C215.52 57.8256 214.311 58.1458 213.076 58.2967C214.393 58.5643 215.737 58.6764 217.081 58.6309L217.289 58.6236L217.34 58.8253C217.84 60.8225 218.092 62.8732 218.092 64.9315L218.091 65.1539C218.086 66.7173 218.413 68.2642 219.049 69.6936C219.684 71.123 220.616 72.4029 221.781 73.4498C223.623 75.122 225.095 77.1579 226.102 79.4279C227.11 81.6978 227.632 84.152 227.634 86.6339C227.634 89.5702 225.631 93.4245 223.949 96.1409C223.523 96.8328 222.946 97.4197 222.259 97.8575C221.573 98.2953 220.796 98.5726 219.987 98.6687C219.22 98.765 218.442 98.6923 217.707 98.4557C216.972 98.2192 216.298 97.8246 215.733 97.2999C216.528 98.8932 217.565 100.356 218.807 101.635L219.036 101.871L218.751 102.036C216.015 103.625 212.903 104.462 209.735 104.461L209.55 104.46C207.227 104.436 204.922 104.874 202.772 105.749C200.621 106.623 198.667 107.916 197.024 109.552C195.352 111.268 193.352 112.634 191.142 113.57C188.932 114.506 186.557 114.993 184.155 115.002Z" fill="#E6E6E6"/>
<path d="M177.997 143.234C177.92 143.234 177.845 143.206 177.786 143.155C177.728 143.105 177.69 143.035 177.679 142.958C176.837 135.483 176.787 127.94 177.529 120.453C178.64 108.644 182.208 91.6335 192.896 77.6634C192.922 77.6299 192.954 77.6018 192.99 77.5806C193.027 77.5595 193.067 77.5457 193.109 77.54C193.151 77.5344 193.193 77.537 193.234 77.5478C193.275 77.5586 193.313 77.5772 193.347 77.6027C193.381 77.6283 193.409 77.6601 193.43 77.6965C193.451 77.7329 193.465 77.7731 193.471 77.8148C193.477 77.8566 193.474 77.899 193.463 77.9397C193.452 77.9804 193.434 78.0186 193.408 78.0521C182.812 91.9015 179.273 108.787 178.17 120.513C177.432 127.949 177.481 135.442 178.316 142.868C178.323 142.913 178.319 142.96 178.306 143.004C178.293 143.048 178.271 143.089 178.24 143.123C178.21 143.158 178.173 143.186 178.131 143.205C178.089 143.224 178.043 143.234 177.997 143.234Z" fill="#3F3D56"/>
<path d="M186.719 97.3681C186.651 97.3682 186.585 97.3468 186.53 97.307C186.475 97.2672 186.434 97.2111 186.413 97.1467C186.392 97.0823 186.392 97.013 186.413 96.9486C186.434 96.8841 186.475 96.828 186.53 96.7882C189.575 94.7351 192.865 93.0671 196.324 91.8226C201.728 89.8523 209.945 88.0661 218.405 90.7475C218.445 90.7603 218.482 90.7808 218.515 90.8079C218.547 90.8351 218.574 90.8683 218.593 90.9057C218.612 90.9431 218.624 90.9839 218.628 91.0259C218.631 91.0678 218.627 91.11 218.614 91.1502C218.601 91.1903 218.58 91.2275 218.553 91.2596C218.526 91.2918 218.493 91.3183 218.455 91.3377C218.417 91.357 218.377 91.3688 218.334 91.3724C218.292 91.3759 218.25 91.3712 218.21 91.3584C209.923 88.7321 201.855 90.4888 196.546 92.4247C193.142 93.6479 189.905 95.2879 186.908 97.3069C186.853 97.3467 186.787 97.3681 186.719 97.3681Z" fill="#3F3D56"/>
<path d="M171.987 60.8244C171.982 60.7569 171.998 60.6895 172.034 60.632C172.07 60.5744 172.123 60.5297 172.186 60.5041C172.249 60.4786 172.319 60.4736 172.385 60.4898C172.451 60.506 172.51 60.5426 172.554 60.5944C174.829 63.4718 176.737 66.6198 178.232 69.966C180.594 75.1919 182.975 83.2258 180.899 91.8221C180.889 91.8631 180.871 91.9018 180.846 91.936C180.822 91.9701 180.79 91.9991 180.754 92.0211C180.718 92.0432 180.678 92.058 180.636 92.0646C180.594 92.0712 180.552 92.0695 180.51 92.0597C180.469 92.0498 180.43 92.0319 180.396 92.0071C180.362 91.9823 180.333 91.951 180.311 91.915C180.289 91.879 180.274 91.839 180.268 91.7973C180.261 91.7556 180.263 91.7131 180.273 91.6721C182.306 83.252 179.966 75.3639 177.645 70.2293C176.175 66.9368 174.299 63.8392 172.062 61.0077C172.018 60.9561 171.991 60.8919 171.987 60.8244Z" fill="#3F3D56"/>
</g>
<defs>
<clipPath id="clip0_627_513">
<rect width="228" height="149" fill="white"/>
</clipPath>
</defs>
</svg>
