<svg width="20" height="16" viewBox="0 0 20 16" fill="none" xmlns="http://www.w3.org/2000/svg">
<g clip-path="url(#clip0_585_45)">
<path d="M17.831 2.666H13.165V1.333C13.165 0.979467 13.0246 0.640413 12.7746 0.390427C12.5246 0.140441 12.1855 0 11.832 0H7.832C7.47864 0.000265087 7.13984 0.140823 6.89007 0.39078C6.6403 0.640737 6.5 0.97964 6.5 1.333V2.666H1.833C1.65787 2.666 1.48445 2.70051 1.32265 2.76756C1.16086 2.83462 1.01387 2.93289 0.890074 3.05678C0.766281 3.18067 0.668114 3.32773 0.601183 3.48958C0.534252 3.65142 0.49987 3.82486 0.500002 4V14.665C0.499739 14.8402 0.534024 15.0138 0.600895 15.1757C0.667767 15.3377 0.765914 15.4849 0.88972 15.6089C1.01353 15.7329 1.16056 15.8312 1.32242 15.8983C1.48428 15.9655 1.65778 16 1.833 16H17.833C18.1865 16 18.5256 15.8596 18.7756 15.6096C19.0256 15.3596 19.166 15.0205 19.166 14.667V4C19.1661 3.8247 19.1317 3.65109 19.0646 3.48911C18.9976 3.32714 18.8992 3.17998 18.7752 3.05607C18.6512 2.93216 18.504 2.83392 18.342 2.76699C18.1799 2.70005 18.0063 2.66574 17.831 2.666ZM7.831 1.333H11.831V2.666H7.831V1.333ZM17.831 4V10H1.831V4H17.831ZM1.831 14.665V11.332H17.831V14.665H1.831Z" fill="#464646"/>
<path d="M9.16462 9.33105H10.4976C10.6699 9.32437 10.8329 9.25123 10.9525 9.12697C11.072 9.00271 11.1388 8.83698 11.1388 8.66455C11.1388 8.49212 11.072 8.32639 10.9525 8.20213C10.8329 8.07786 10.6699 8.00472 10.4976 7.99805H9.16462C8.99232 8.00472 8.8293 8.07786 8.70975 8.20213C8.59021 8.32639 8.52344 8.49212 8.52344 8.66455C8.52344 8.83698 8.59021 9.00271 8.70975 9.12697C8.8293 9.25123 8.99232 9.32437 9.16462 9.33105Z" fill="#464646"/>
</g>
<defs>
<clipPath id="clip0_585_45">
<rect width="18.664" height="15.998" fill="white" transform="translate(0.5)"/>
</clipPath>
</defs>
</svg>
