<svg width="36" height="40" viewBox="0 0 36 40" fill="none" xmlns="http://www.w3.org/2000/svg">
<g clip-path="url(#clip0_626_449)">
<path d="M18 5.5625C15.2885 5.56092 12.6505 6.44376 10.4862 8.07708C8.32189 9.7104 6.74936 12.0051 6.00717 14.613C5.26498 17.2209 5.39365 19.9997 6.37365 22.5279C7.35365 25.0561 9.1315 27.1956 11.4375 28.6219V33.7813C11.4375 33.9553 11.5066 34.1222 11.6297 34.2453C11.7528 34.3684 11.9197 34.4375 12.0937 34.4375H23.9062C24.0803 34.4375 24.2472 34.3684 24.3703 34.2453C24.4934 34.1222 24.5625 33.9553 24.5625 33.7813V28.6219C26.8685 27.1956 28.6463 25.0561 29.6263 22.5279C30.6063 19.9997 30.735 17.2209 29.9928 14.613C29.2506 12.0051 27.6781 9.7104 25.5138 8.07708C23.3495 6.44376 20.7115 5.56092 18 5.5625Z" fill="#E6ECFF"/>
<path d="M18.0002 5.5625C16.2863 5.56169 14.5907 5.91512 13.0199 6.60061C11.449 7.2861 10.0368 8.28885 8.87183 9.54594C8.83843 10.9993 8.90296 12.4532 9.06497 13.8979L9.06214 13.9034C9.06529 13.9302 9.07041 13.9584 9.07363 13.9853C9.6547 20.0308 12.4007 25.6628 16.8058 29.8438H24.5627V28.6231C26.8687 27.1967 28.6466 25.0571 29.6266 22.5288C30.6066 20.0006 30.7353 17.2217 29.9932 14.6137C29.251 12.0057 27.6785 9.71091 25.5141 8.07747C23.3498 6.44403 20.7118 5.56106 18.0002 5.5625Z" fill="#E6ECFF"/>
<path d="M8.8125 18.6875C8.63845 18.6875 8.47153 18.6184 8.34846 18.4953C8.22539 18.3722 8.15625 18.2053 8.15625 18.0312C8.1592 15.4214 9.19726 12.9193 11.0427 11.0739C12.8881 9.22851 15.3902 8.19045 18 8.1875C18.174 8.1875 18.341 8.25664 18.464 8.37971C18.5871 8.50278 18.6562 8.6697 18.6562 8.84375C18.6562 9.0178 18.5871 9.18472 18.464 9.30779C18.341 9.43086 18.174 9.5 18 9.5C15.7381 9.5025 13.5696 10.4021 11.9703 12.0015C10.3709 13.6009 9.47125 15.7694 9.46875 18.0312C9.46875 18.2053 9.39961 18.3722 9.27654 18.4953C9.15347 18.6184 8.98655 18.6875 8.8125 18.6875Z" fill="#003F5B"/>
<path d="M18 4.25C17.826 4.25 17.6589 4.18086 17.5359 4.05779C17.4128 3.93472 17.3438 3.7678 17.3438 3.59375V0.96875C17.3438 0.794702 17.4128 0.627782 17.5359 0.504711C17.6589 0.38164 17.826 0.3125 18 0.3125C18.174 0.3125 18.341 0.38164 18.464 0.504711C18.5871 0.627782 18.6562 0.794702 18.6562 0.96875V3.59375C18.6562 3.7678 18.5871 3.93472 18.464 4.05779C18.341 4.18086 18.174 4.25 18 4.25Z" fill="#003F5B"/>
<path d="M28.0361 7.99497C27.9751 7.93406 27.9267 7.86173 27.8937 7.78212C27.8607 7.70251 27.8437 7.61718 27.8438 7.531C27.8437 7.44482 27.8607 7.35949 27.8937 7.27988C27.9267 7.20027 27.9751 7.12794 28.0361 7.06703L30.0048 5.09828C30.1286 4.97874 30.2943 4.9126 30.4664 4.91409C30.6385 4.91559 30.8031 4.9846 30.9247 5.10628C31.0464 5.22795 31.1154 5.39255 31.1169 5.56461C31.1184 5.73668 31.0523 5.90245 30.9327 6.02622L28.964 7.99497C28.9031 8.05593 28.8308 8.1043 28.7511 8.13729C28.6715 8.17029 28.5862 8.18728 28.5 8.18728C28.4138 8.18728 28.3285 8.17029 28.2489 8.13729C28.1693 8.1043 28.097 8.05593 28.0361 7.99497Z" fill="#003F5B"/>
<path d="M35.0625 18.6875H32.4375C32.2635 18.6875 32.0965 18.6184 31.9735 18.4953C31.8504 18.3722 31.7812 18.2053 31.7812 18.0312C31.7812 17.8572 31.8504 17.6903 31.9735 17.5672C32.0965 17.4441 32.2635 17.375 32.4375 17.375H35.0625C35.2365 17.375 35.4036 17.4441 35.5266 17.5672C35.6497 17.6903 35.7188 17.8572 35.7188 18.0312C35.7188 18.2053 35.6497 18.3722 35.5266 18.4953C35.4036 18.6184 35.2365 18.6875 35.0625 18.6875Z" fill="#003F5B"/>
<path d="M7.03578 7.99497L5.06703 6.02622C4.94749 5.90245 4.88135 5.73668 4.88284 5.56461C4.88434 5.39255 4.95335 5.22795 5.07503 5.10628C5.1967 4.9846 5.3613 4.91559 5.53336 4.91409C5.70543 4.9126 5.8712 4.97874 5.99497 5.09828L7.96372 7.06703C8.08326 7.1908 8.14941 7.35657 8.14791 7.52864C8.14642 7.70071 8.0774 7.8653 7.95573 7.98698C7.83405 8.10865 7.66946 8.17767 7.49739 8.17916C7.32532 8.18066 7.15955 8.11451 7.03578 7.99497Z" fill="#003F5B"/>
<path d="M3.5625 18.6875H0.9375C0.763452 18.6875 0.596532 18.6184 0.473461 18.4953C0.350391 18.3722 0.28125 18.2053 0.28125 18.0312C0.28125 17.8572 0.350391 17.6903 0.473461 17.5672C0.596532 17.4441 0.763452 17.375 0.9375 17.375H3.5625C3.73655 17.375 3.90347 17.4441 4.02654 17.5672C4.14961 17.6903 4.21875 17.8572 4.21875 18.0312C4.21875 18.2053 4.14961 18.3722 4.02654 18.4953C3.90347 18.6184 3.73655 18.6875 3.5625 18.6875Z" fill="#003F5B"/>
<path d="M18.6559 8.84375C18.6554 9.01764 18.5861 9.18427 18.4632 9.30723C18.3402 9.4302 18.1736 9.4995 17.9997 9.5C15.9402 9.50099 13.9506 10.247 12.3983 11.6004C10.8459 12.9537 9.83549 14.823 9.55371 16.8631C9.33058 15.8459 9.17308 14.855 9.06152 13.9034C9.85159 12.1978 11.1128 10.7536 12.6964 9.74089C14.2799 8.72819 16.12 8.18922 17.9997 8.1875C18.1736 8.188 18.3402 8.2573 18.4632 8.38027C18.5861 8.50323 18.6554 8.66986 18.6559 8.84375Z" fill="#003F5B"/>
<path d="M21.7449 22.8173C21.684 22.7563 21.6117 22.708 21.5321 22.675C21.4525 22.642 21.3671 22.625 21.2809 22.625C21.1948 22.625 21.1094 22.642 21.0298 22.675C20.9502 22.708 20.8779 22.7563 20.817 22.8173L17.9997 25.6345L15.1824 22.8173C15.0586 22.6978 14.8929 22.6316 14.7208 22.6331C14.5487 22.6346 14.3841 22.7036 14.2625 22.8253C14.1408 22.947 14.0718 23.1116 14.0703 23.2836C14.0688 23.4557 14.1349 23.6215 14.2545 23.7452L17.3434 26.8343V30.5C17.3434 30.6741 17.4126 30.841 17.5357 30.9641C17.6587 31.0871 17.8256 31.1563 17.9997 31.1563C18.1737 31.1563 18.3407 31.0871 18.4637 30.9641C18.5868 30.841 18.6559 30.6741 18.6559 30.5V26.8343L21.7449 23.7452C21.8059 23.6843 21.8542 23.612 21.8872 23.5324C21.9202 23.4528 21.9372 23.3675 21.9372 23.2813C21.9372 23.1951 21.9202 23.1098 21.8872 23.0302C21.8542 22.9505 21.8059 22.8782 21.7449 22.8173Z" fill="#003F5B"/>
<path d="M21.9375 33.125H14.0625C13.8885 33.125 13.7215 33.1941 13.5985 33.3172C13.4754 33.4403 13.4062 33.6072 13.4062 33.7812V35.0938C13.4062 36.3121 13.8902 37.4805 14.7517 38.342C15.6133 39.2035 16.7817 39.6875 18 39.6875C19.2183 39.6875 20.3869 39.2035 21.2484 38.342C22.1099 37.4805 22.5938 36.3121 22.5938 35.0938V33.7812C22.5938 33.6072 22.5247 33.4403 22.4016 33.3172C22.2786 33.1941 22.1115 33.125 21.9375 33.125Z" fill="#188ABC"/>
<path d="M22.594 33.965V35.0938C22.5964 35.3136 22.5788 35.5333 22.5415 35.75H13.459C13.4217 35.5333 13.4042 35.3136 13.4065 35.0938V33.7812H22.2593C22.3709 33.847 22.4825 33.9059 22.594 33.965Z" fill="white"/>
<path d="M24.5625 29.8438V33.7812C24.562 33.9551 24.4927 34.1218 24.3697 34.2447C24.2468 34.3677 24.0801 34.437 23.9062 34.4375H12.0938C11.9199 34.437 11.7532 34.3677 11.6303 34.2447C11.5073 34.1218 11.438 33.9551 11.4375 33.7812V29.8438H24.5625Z" fill="#003F5B"/>
<path d="M24.5625 29.8438V33.7812C24.562 33.9551 24.4927 34.1218 24.3698 34.2447C24.2468 34.3677 24.0802 34.437 23.9063 34.4375H23.4994C21.0548 33.2431 18.7993 31.6953 16.8057 29.8438H24.5625Z" fill="#003F5B"/>
</g>
<defs>
<clipPath id="clip0_626_449">
<rect width="36" height="40" fill="white"/>
</clipPath>
</defs>
</svg>
