<svg width="24" height="24" viewBox="0 0 24 24" fill="none" xmlns="http://www.w3.org/2000/svg">
<g clip-path="url(#clip0_585_40)">
<path d="M23.0154 1.55437C22.864 1.08213 22.5604 0.673386 22.152 0.392036C21.7437 0.110686 21.2536 -0.0274024 20.7584 -0.000634949C20.3944 -0.0216349 18.9174 0.099365 17.1764 3.07636L10.9404 3.06937C10.8391 3.06945 10.7393 3.0938 10.6494 3.14037C10.5773 3.17516 10.5122 3.22296 10.4574 3.28137L0.6784 13.6784C0.558938 13.8055 0.494882 13.975 0.50032 14.1494C0.505758 14.3238 0.580246 14.4889 0.7074 14.6084L10.0664 23.4084C10.1935 23.528 10.3628 23.5922 10.5372 23.5869C10.7116 23.5817 10.8768 23.5074 10.9964 23.3804L20.7414 13.0194C20.8149 12.9531 20.8724 12.8711 20.9098 12.7795C20.9472 12.6879 20.9635 12.5891 20.9574 12.4904L20.5904 6.62236C22.4384 5.09936 23.4494 3.01637 23.0154 1.55437ZM10.4884 21.9994L2.0884 14.0994L11.2234 4.38636L16.4854 4.39236C16.2261 4.93703 15.9644 5.55303 15.7004 6.24037C15.286 6.19932 14.8691 6.28974 14.5089 6.49881C14.1487 6.70787 13.8635 7.02499 13.6935 7.40521C13.5236 7.78544 13.4776 8.2095 13.5622 8.6173C13.6467 9.02511 13.8574 9.39598 14.1644 9.67737C14.3552 9.86535 14.5816 10.0133 14.8304 10.1125C15.0792 10.2118 15.3453 10.2603 15.6131 10.2552C15.8809 10.2501 16.145 10.1916 16.3899 10.083C16.6347 9.97442 16.8554 9.818 17.039 9.62292C17.2225 9.42784 17.3652 9.19805 17.4587 8.94705C17.5522 8.69604 17.5945 8.42888 17.5833 8.16126C17.5721 7.89365 17.5075 7.63098 17.3933 7.38869C17.2791 7.1464 17.1176 6.92937 16.9184 6.75036C16.8429 6.68276 16.762 6.62155 16.6764 6.56736C16.9764 5.83136 17.3064 5.08936 17.6624 4.39436H19.1324L19.6254 12.2854L10.4884 21.9994ZM16.5414 8.18336C16.5458 8.3147 16.5241 8.4456 16.4776 8.5685C16.4311 8.6914 16.3607 8.80386 16.2704 8.89936C16.0854 9.08655 15.8355 9.19542 15.5725 9.20343C15.3095 9.21143 15.0534 9.11796 14.8574 8.94236C14.7616 8.85243 14.6845 8.74451 14.6305 8.62476C14.5764 8.50502 14.5465 8.3758 14.5424 8.24448C14.5383 8.11317 14.5602 7.98233 14.6067 7.85946C14.6532 7.73659 14.7234 7.62408 14.8134 7.52836C14.9536 7.37822 15.1371 7.27546 15.3384 7.23436C15.2464 7.50036 15.1534 7.77336 15.0614 8.05836C15.041 8.12147 15.0333 8.18796 15.0387 8.25404C15.044 8.32013 15.0623 8.38452 15.0925 8.44353C15.1228 8.50254 15.1643 8.55502 15.2148 8.59797C15.2653 8.64093 15.3238 8.67351 15.3869 8.69386C15.45 8.71422 15.5165 8.72195 15.5826 8.71661C15.6487 8.71126 15.7131 8.69296 15.7721 8.66273C15.8311 8.63251 15.8836 8.59095 15.9265 8.54045C15.9695 8.48994 16.002 8.43147 16.0224 8.36837C16.1064 8.10937 16.1994 7.83936 16.2974 7.56836C16.4469 7.73932 16.533 7.95645 16.5414 8.18336ZM20.4074 3.69937C20.397 3.5324 20.3233 3.37567 20.2015 3.26106C20.0796 3.14644 19.9187 3.08255 19.7514 3.08237H18.4004C19.1784 1.83437 20.0004 0.966365 20.7004 1.01137C21.4474 1.05837 21.9004 1.33837 22.0524 1.84337C22.2944 2.65737 21.7634 4.06436 20.5134 5.32336L20.4074 3.69937Z" fill="#464646"/>
<path d="M12.0016 12.6371L11.4516 12.1191L10.9516 12.6531C10.6782 12.4368 10.3349 12.3282 9.9868 12.3479C9.63868 12.3676 9.30988 12.5143 9.06263 12.7601C8.55063 13.3051 8.69662 13.9711 9.10762 14.7381C9.39062 15.2691 9.44363 15.5731 9.24263 15.7871C9.04163 16.0011 8.69663 15.9291 8.37663 15.6281C8.05443 15.3167 7.81399 14.9307 7.67662 14.5041L6.89062 15.0041C7.04676 15.4326 7.29531 15.8215 7.61863 16.1431L7.11863 16.6761L7.66862 17.1941L8.20663 16.6211C8.49017 16.8519 8.8492 16.9695 9.21434 16.951C9.57948 16.9325 9.92482 16.7794 10.1836 16.5211C10.6596 16.0151 10.6836 15.4531 10.2336 14.5891C9.92562 13.9601 9.83963 13.6571 10.0136 13.4721C10.1616 13.3151 10.4276 13.2721 10.7926 13.6121C11.0713 13.878 11.2863 14.2035 11.4216 14.5641L12.1816 14.0831C12.0369 13.725 11.8189 13.4011 11.5416 13.1321L12.0016 12.6371Z" fill="#464646"/>
<path d="M9.89353 7.70541C9.87337 7.6865 9.84969 7.67174 9.82383 7.66199C9.79797 7.65223 9.77044 7.64766 9.74282 7.64854C9.71519 7.64943 9.68801 7.65574 9.66282 7.66713C9.63764 7.67852 9.61494 7.69475 9.59603 7.71491C9.57712 7.73507 9.56237 7.75875 9.55261 7.78461C9.54286 7.81047 9.53829 7.838 9.53917 7.86563C9.54095 7.92142 9.56482 7.97422 9.60553 8.01241L16.1955 14.2124C16.2362 14.2506 16.2905 14.2711 16.3462 14.2693C16.402 14.2675 16.4548 14.2436 16.493 14.2029C16.5312 14.1622 16.5517 14.108 16.5499 14.0522C16.5481 13.9964 16.5242 13.9436 16.4835 13.9054L9.89353 7.70541Z" fill="#464646"/>
</g>
<defs>
<clipPath id="clip0_585_40">
<rect width="22.615" height="23.59" fill="white" transform="translate(0.5)"/>
</clipPath>
</defs>
</svg>
