<svg width="42" height="42" viewBox="0 0 42 42" fill="none" xmlns="http://www.w3.org/2000/svg">
<g clip-path="url(#clip0_626_435)">
<path d="M28.6826 25.1302L25.4014 21.8489C25.3352 21.7819 25.2552 21.7302 25.167 21.6973C25.0788 21.6643 24.9845 21.651 24.8906 21.6582C24.7968 21.6649 24.7056 21.6916 24.6231 21.7366C24.5406 21.7816 24.4687 21.8439 24.4124 21.9191C23.7035 22.8645 22.8636 23.7042 21.9181 24.4129C21.843 24.4694 21.781 24.5413 21.7361 24.6239C21.6912 24.7064 21.6645 24.7977 21.6579 24.8914C21.6513 24.9851 21.6649 25.0792 21.6977 25.1672C21.7305 25.2553 21.7819 25.3352 21.8483 25.4017L25.1295 28.683C25.1905 28.7439 25.2628 28.7923 25.3424 28.8253C25.422 28.8583 25.5073 28.8753 25.5935 28.8753C25.6797 28.8753 25.765 28.8583 25.8446 28.8253C25.9242 28.7923 25.9966 28.7439 26.0575 28.683L28.6825 26.058C28.7434 25.9971 28.7918 25.9248 28.8248 25.8452C28.8578 25.7656 28.8748 25.6803 28.8748 25.5941C28.8748 25.5079 28.8578 25.4226 28.8249 25.343C28.7919 25.2634 28.7435 25.1911 28.6826 25.1302Z" fill="#003F5B"/>
<path d="M40.0641 33.8864L29.9952 23.8174C29.8698 23.6989 29.7038 23.6328 29.5313 23.6328C29.3587 23.6328 29.1927 23.6989 29.0673 23.8174L23.8173 29.0674C23.7563 29.1283 23.708 29.2006 23.675 29.2802C23.642 29.3599 23.625 29.4452 23.625 29.5314C23.625 29.6175 23.642 29.7029 23.675 29.7825C23.708 29.8621 23.7563 29.9344 23.8173 29.9953L33.886 40.0642C34.7064 40.8776 35.8157 41.333 36.971 41.3305C38.1264 41.3281 39.2337 40.868 40.0507 40.0511C40.8677 39.2342 41.3278 38.1269 41.3303 36.9715C41.3328 35.8161 40.8775 34.7069 40.0641 33.8864Z" fill="#003F5B"/>
<path d="M14.4375 28.2188C22.0487 28.2188 28.2188 22.0487 28.2188 14.4375C28.2188 6.82633 22.0487 0.65625 14.4375 0.65625C6.82633 0.65625 0.65625 6.82633 0.65625 14.4375C0.65625 22.0487 6.82633 28.2188 14.4375 28.2188Z" fill="#E6ECFF"/>
<path d="M28.2187 14.4365C28.2195 17.5427 27.1706 20.558 25.2424 22.9932C23.3141 25.4283 20.6195 27.1405 17.5958 27.8517C14.5722 28.563 11.3969 28.2317 8.5852 26.9115C5.77353 25.5913 3.49046 23.3598 2.10645 20.579C8.41957 23.473 17.6465 23.8405 27.9627 11.7852C28.1346 12.6585 28.2203 13.5465 28.2187 14.4365Z" fill="#C8D5F8"/>
<path d="M14.4375 25.5938C20.5989 25.5938 25.5938 20.5989 25.5938 14.4375C25.5938 8.27607 20.5989 3.28125 14.4375 3.28125C8.27607 3.28125 3.28125 8.27607 3.28125 14.4375C3.28125 20.5989 8.27607 25.5938 14.4375 25.5938Z" fill="#E6ECFF"/>
<path d="M25.5932 14.3594V14.4382C25.5952 16.6918 24.9139 18.8931 23.6394 20.7518C22.3648 22.6104 20.5568 24.039 18.4539 24.8492C16.3509 25.6594 14.0517 25.8131 11.8596 25.2901C9.66752 24.7671 7.68544 23.5918 6.1748 21.9194C11.5429 23.0219 18.2432 21.7554 25.5932 14.3594Z" fill="#C8D5F8"/>
<path d="M11.1562 18.375V25.0949C9.70877 24.6515 8.36833 23.9143 7.21875 22.9293V18.375C7.21925 18.2011 7.28855 18.0345 7.41152 17.9115C7.53448 17.7886 7.70111 17.7193 7.875 17.7188H10.5C10.6739 17.7193 10.8405 17.7886 10.9635 17.9115C11.0864 18.0345 11.1557 18.2011 11.1562 18.375Z" fill="#003F5B"/>
<path d="M16.4062 15.0937V25.4166C15.1044 25.6528 13.7706 25.6528 12.4688 25.4166V15.0937C12.4693 14.9199 12.5386 14.7532 12.6615 14.6303C12.7845 14.5073 12.9511 14.438 13.125 14.4375H15.75C15.9239 14.438 16.0904 14.5073 16.2134 14.6303C16.3363 14.7532 16.4057 14.9199 16.4062 15.0937Z" fill="#003F5B"/>
<path d="M21.6562 11.8125V22.9294C20.5067 23.9144 19.1661 24.6516 17.7188 25.095V11.8125C17.7193 11.6386 17.7886 11.472 17.9115 11.349C18.0345 11.2261 18.2011 11.1569 18.375 11.1562H21C21.1739 11.1569 21.3404 11.2261 21.4634 11.349C21.5863 11.472 21.6557 11.6386 21.6562 11.8125Z" fill="#003F5B"/>
<path d="M18.375 5.90625H16.4062C16.2322 5.90625 16.0653 5.97539 15.9422 6.09846C15.8191 6.22153 15.75 6.38845 15.75 6.5625C15.75 6.73655 15.8191 6.90347 15.9422 7.02654C16.0653 7.14961 16.2322 7.21875 16.4062 7.21875H16.773C15.2356 8.85006 11.8943 11.8125 7.875 11.8125C7.70095 11.8125 7.53403 11.8816 7.41096 12.0047C7.28789 12.1278 7.21875 12.2947 7.21875 12.4688C7.21875 12.6428 7.28789 12.8097 7.41096 12.9328C7.53403 13.0559 7.70095 13.125 7.875 13.125C12.4061 13.125 16.0353 9.93228 17.7188 8.13842V8.53125C17.7188 8.7053 17.7879 8.87222 17.911 8.99529C18.034 9.11836 18.201 9.1875 18.375 9.1875C18.549 9.1875 18.716 9.11836 18.839 8.99529C18.9621 8.87222 19.0312 8.7053 19.0312 8.53125V6.5625C19.0312 6.38845 18.9621 6.22153 18.839 6.09846C18.716 5.97539 18.549 5.90625 18.375 5.90625Z" fill="#003F5B"/>
<path d="M11.1562 22.1876V25.0948C9.70877 24.6514 8.36833 23.9142 7.21875 22.9292V22.0957C8.52245 22.2885 9.84498 22.3193 11.1562 22.1876Z" fill="#071128"/>
<path d="M16.4062 20.8496V25.4171C15.1044 25.6534 13.7706 25.6534 12.4688 25.4171V22.0112C13.8196 21.7686 15.14 21.3791 16.4062 20.8496Z" fill="#071128"/>
<path d="M21.6562 17.8047V22.93C20.5067 23.915 19.1661 24.6522 17.7188 25.0956V20.2459C19.1013 19.5511 20.4191 18.7341 21.6562 17.8047Z" fill="#071128"/>
</g>
<defs>
<clipPath id="clip0_626_435">
<rect width="42" height="42" fill="white"/>
</clipPath>
</defs>
</svg>
