<svg width="38" height="32" viewBox="0 0 38 32" fill="none" xmlns="http://www.w3.org/2000/svg">
<g clip-path="url(#clip0_626_464)">
<path d="M5.875 6.8125H4.5625C3.51821 6.8125 2.51669 7.22734 1.77827 7.96577C1.03984 8.70419 0.625 9.70571 0.625 10.75C0.625 11.7943 1.03984 12.7958 1.77827 13.5342C2.51669 14.2727 3.51821 14.6875 4.5625 14.6875H5.875C6.2231 14.6875 6.55694 14.5492 6.80308 14.3031C7.04922 14.0569 7.1875 13.7231 7.1875 13.375V8.125C7.1875 7.7769 7.04922 7.44306 6.80308 7.19692C6.55694 6.95078 6.2231 6.8125 5.875 6.8125Z" fill="#003F5B"/>
<path d="M19.5117 29.8731C19.0509 30.5329 18.4176 31.0534 17.681 31.3777C16.9445 31.702 16.1329 31.8177 15.3351 31.712C14.5373 31.6063 13.7838 31.2835 13.157 30.7786C12.5303 30.2738 12.0543 29.6064 11.7811 28.8494L7.58105 17.3125H16.9392L20.0367 25.8569C20.2822 26.5186 20.3627 27.2301 20.2712 27.93C20.1797 28.6298 19.919 29.2968 19.5117 29.8731Z" fill="#003F5B"/>
<path d="M19 4.1875H5.875C5.15013 4.1875 4.5625 4.77513 4.5625 5.5V16C4.5625 16.7249 5.15013 17.3125 5.875 17.3125H19C19.7249 17.3125 20.3125 16.7249 20.3125 16V5.5C20.3125 4.77513 19.7249 4.1875 19 4.1875Z" fill="#E6ECFF"/>
<path d="M33.4375 6.8125H30.8125C30.4644 6.8125 30.1306 6.95078 29.8844 7.19692C29.6383 7.44306 29.5 7.7769 29.5 8.125V13.375C29.5 13.7231 29.6383 14.0569 29.8844 14.3031C30.1306 14.5492 30.4644 14.6875 30.8125 14.6875H33.4375C34.4818 14.6875 35.4833 14.2727 36.2217 13.5342C36.9602 12.7958 37.375 11.7943 37.375 10.75C37.375 9.70571 36.9602 8.70419 36.2217 7.96577C35.4833 7.22734 34.4818 6.8125 33.4375 6.8125Z" fill="#003F5B"/>
<path d="M20.3125 13.5859V16.0009C20.3115 16.3486 20.1729 16.6819 19.927 16.9278C19.681 17.1738 19.3478 17.3124 19 17.3134H5.875C5.52721 17.3124 5.19396 17.1738 4.94803 16.9278C4.70211 16.6819 4.5635 16.3486 4.5625 16.0009V15.1871C9.86546 15.5596 15.193 15.0179 20.3125 13.5859Z" fill="#C8D5F8"/>
<path d="M31.62 0.528896C31.4632 0.405291 31.2801 0.319485 31.0848 0.278148C30.8895 0.23681 30.6873 0.241053 30.494 0.290546L19.994 2.91554C19.7101 2.98655 19.4582 3.15036 19.2781 3.38095C19.098 3.61155 19.0001 3.8957 19 4.18828V17.3132C19 17.6059 19.0979 17.8901 19.278 18.1208C19.458 18.3515 19.7101 18.5153 19.994 18.5864L30.494 21.2114C30.5981 21.2378 30.7051 21.251 30.8125 21.2507C31.1605 21.2506 31.4943 21.1122 31.7404 20.8661C31.9865 20.62 32.1248 20.2863 32.125 19.9382V1.56328C32.1249 1.36383 32.0794 1.16702 31.9919 0.987798C31.9043 0.808572 31.7772 0.651636 31.62 0.528896Z" fill="#E6ECFF"/>
<path d="M32.125 5.66992V19.9368C32.1268 20.1097 32.094 20.2811 32.0287 20.4412C31.9633 20.6012 31.8667 20.7466 31.7445 20.8688C31.6223 20.991 31.4769 21.0877 31.3168 21.153C31.1568 21.2183 30.9854 21.2511 30.8125 21.2493C30.7063 21.2492 30.6005 21.236 30.4975 21.21L19.9975 18.585C19.7124 18.5157 19.4589 18.3524 19.2779 18.1214C19.0969 17.8905 18.999 17.6053 19 17.3118V13.9518C25.5494 12.2587 29.605 9.10867 32.125 5.66992Z" fill="#C8D5F8"/>
</g>
<defs>
<clipPath id="clip0_626_464">
<rect width="38" height="32" fill="white"/>
</clipPath>
</defs>
</svg>
